<svg width="24" height="24" viewBox="0 0 24 24" fill="none" xmlns="http://www.w3.org/2000/svg">
<path d="M12.005 22C6.48201 22 2.005 17.523 2.005 12C2.005 6.477 6.48201 2 12.005 2C17.528 2 22.005 6.477 22.005 12C22.005 17.523 17.528 22 12.005 22ZM12.005 20C14.1267 20 16.1616 19.1571 17.6619 17.6569C19.1621 16.1566 20.005 14.1217 20.005 12C20.005 9.87827 19.1621 7.84344 17.6619 6.34315C16.1616 4.84285 14.1267 4 12.005 4C9.88327 4 7.84844 4.84285 6.34815 6.34315C4.84786 7.84344 4.005 9.87827 4.005 12C4.005 14.1217 4.84786 16.1566 6.34815 17.6569C7.84844 19.1571 9.88327 20 12.005 20ZM7.005 13H16.005V15H12.005V18L7.005 13ZM12.005 9V6L17.005 11H8.005V9H12.005Z" fill="#4438CA"/>
</svg>
