<svg width="358" height="395" viewBox="0 0 358 395" fill="none" xmlns="http://www.w3.org/2000/svg" color="#9CA3AF">
<path d="M48.8675 74.4443L48.6198 73.297C47.5012 67.9653 47.1192 63.6138 47.4737 60.2426C47.8596 56.8646 48.8178 54.0096 50.3481 51.6777C51.8721 49.3163 53.8542 47.0254 56.2944 44.8049C57.9649 43.2741 59.4095 41.6843 60.6281 40.0355C61.8717 38.3506 62.7544 36.5896 63.2763 34.7526C63.7918 32.8862 63.8272 30.9233 63.3824 28.8639C62.8806 26.5398 61.8655 24.6497 60.3373 23.1939C58.8091 21.738 56.956 20.7525 54.7781 20.2375C52.6315 19.7158 50.3514 19.7155 47.938 20.2367C45.7126 20.7172 43.6954 21.6301 41.8863 22.9753C40.1022 24.2843 38.7489 25.993 37.8264 28.1013C36.9289 30.1734 36.7003 32.609 37.1408 35.4083L20.4033 39.0228C19.3529 33.3992 19.7845 28.4102 21.6983 24.0556C23.6433 19.6943 26.6693 16.0849 30.7762 13.2273C34.9144 10.363 39.7261 8.33862 45.2112 7.15411C51.1979 5.8613 56.6764 5.70972 61.6469 6.69937C66.6488 7.68225 70.813 9.72357 74.1396 12.8233C77.4912 15.8869 79.7039 19.9046 80.7776 24.8765C81.5018 28.2303 81.57 31.3563 80.982 34.2545C80.4254 37.1459 79.3195 39.8481 77.6642 42.3609C76.0089 44.8738 73.9141 47.2506 71.3799 49.4914C69.1587 51.5106 67.4048 53.4906 66.118 55.4312C64.8625 57.365 64.0749 59.4904 63.755 61.8072C63.4602 64.0879 63.6338 66.7908 64.2759 69.916L64.5237 71.0634L48.8675 74.4443ZM62.9947 100.214C60.1738 100.823 57.5414 100.407 55.0974 98.9638C52.6535 97.5209 51.1393 95.4461 50.5548 92.7396C49.983 90.0918 50.5125 87.6065 52.1432 85.2837C53.774 82.9609 55.9998 81.4949 58.8208 80.8857C61.6103 80.2833 64.2271 80.7036 66.671 82.1464C69.1463 83.5826 70.6699 85.6245 71.2416 88.2722C71.6292 90.0668 71.4959 91.8045 70.8419 93.4853C70.2193 95.1594 69.2197 96.6069 67.8431 97.8279C66.4915 99.0127 64.8754 99.8082 62.9947 100.214Z" fill="#9ca3af"/>
<path fill-rule="evenodd" clip-rule="evenodd" d="M173 45H188C215.062 45 237 66.938 237 94V121H124V94C124 66.938 145.938 45 173 45ZM113 94C113 60.8629 139.863 34 173 34H188C221.137 34 248 60.8629 248 94V122H293L317 395H43L66.5 122H113V94ZM54.9876 384L76.5938 133H282.925L304.991 384H54.9876Z" fill="#9ca3af"/>
<path d="M135 202.5C135 208.851 129.851 214 123.5 214C117.149 214 112 208.851 112 202.5C112 196.149 117.149 191 123.5 191C129.851 191 135 196.149 135 202.5Z" fill="#9CA3AF"/>
<path fill-rule="evenodd" clip-rule="evenodd" d="M11.5 233C16.1944 233 20 229.194 20 224.5C20 219.806 16.1944 216 11.5 216C6.80558 216 3 219.806 3 224.5C3 229.194 6.80558 233 11.5 233ZM11.5 236C17.8513 236 23 230.851 23 224.5C23 218.149 17.8513 213 11.5 213C5.14873 213 0 218.149 0 224.5C0 230.851 5.14873 236 11.5 236Z" fill="#9CA3AF"/>
<path fill-rule="evenodd" clip-rule="evenodd" d="M337 275C340.866 275 344 271.866 344 268C344 264.134 340.866 261 337 261C333.134 261 330 264.134 330 268C330 271.866 333.134 275 337 275ZM337 278C342.523 278 347 273.523 347 268C347 262.477 342.523 258 337 258C331.477 258 327 262.477 327 268C327 273.523 331.477 278 337 278Z" fill="#9CA3AF"/>
<path d="M350.827 189.311L340.438 178.922L341.922 177.438L352.311 187.827L350.827 189.311ZM341.572 189.572L340.177 188.177L351.177 177.177L352.572 178.572L341.572 189.572Z" fill="#9CA3AF"/>
<path d="M19.7285 319.692V305H21.828V319.692H19.7285ZM13 313.333V311.36H28.5565V313.333H13Z" fill="#9CA3AF"/>
<path d="M249 202.5C249 208.851 243.851 214 237.5 214C231.149 214 226 208.851 226 202.5C226 196.149 231.149 191 237.5 191C243.851 191 249 196.149 249 202.5Z" fill="#9CA3AF"/>
<path fill-rule="evenodd" clip-rule="evenodd" d="M180 240.5C169.23 240.5 160.5 249.23 160.5 260C160.5 262.485 158.485 264.5 156 264.5C153.515 264.5 151.5 262.485 151.5 260C151.5 244.26 164.26 231.5 180 231.5C195.74 231.5 208.5 244.26 208.5 260C208.5 262.485 206.485 264.5 204 264.5C201.515 264.5 199.5 262.485 199.5 260C199.5 249.23 190.77 240.5 180 240.5Z" fill="#9CA3AF"/>
</svg>
