<svg width="24" height="24" viewBox="0 0 24 24" fill="none" xmlns="http://www.w3.org/2000/svg">
<path d="M11.46 0.636973C11.811 0.523109 12.189 0.523109 12.54 0.636973L20.79 3.31197C21.1416 3.42602 21.448 3.64845 21.6654 3.94738C21.8827 4.2463 21.9999 4.60637 22 4.97597V9.99997C22 16.19 18.23 20.705 12.599 22.83C12.2129 22.9753 11.7871 22.9753 11.401 22.83C5.771 20.704 2 16.19 2 9.99997V4.97597C2 4.21597 2.49 3.54597 3.21 3.31197L11.46 0.636973ZM12.077 2.06297C12.0269 2.04677 11.9731 2.04677 11.923 2.06297L3.673 4.73997C3.62287 4.7562 3.57914 4.78786 3.54807 4.83042C3.517 4.87299 3.50018 4.92428 3.5 4.97697V9.99997C3.5 15.461 6.78 19.483 11.93 21.426C11.9751 21.4428 12.0249 21.4428 12.07 21.426C17.22 19.483 20.5 15.46 20.5 9.99997V4.97597C20.4998 4.92328 20.483 4.87199 20.4519 4.82942C20.4209 4.78686 20.3771 4.7552 20.327 4.73897L12.077 2.06297Z" fill="#4438CA"/>
<path fill-rule="evenodd" clip-rule="evenodd" d="M20.8825 3.02662C21.2944 3.16022 21.6533 3.42078 21.9079 3.77095C22.1626 4.12112 22.2998 4.54291 22.2999 4.97588V9.99998C22.2999 16.3357 18.4318 20.9495 12.7049 23.1107C12.2506 23.2817 11.7495 23.2818 11.2952 23.1107C5.56946 20.9486 1.69995 16.3358 1.69995 9.99998V4.97598C1.69995 4.08541 2.27421 3.30065 3.11723 3.02667L11.3674 0.351618C11.3674 0.351613 11.3674 0.351622 11.3674 0.351618C11.7785 0.218252 12.2213 0.218239 12.6325 0.351605C12.6325 0.351609 12.6325 0.3516 12.6325 0.351605L20.8825 3.02662ZM11.46 0.636978C11.8109 0.523114 12.189 0.523114 12.54 0.636978L20.79 3.31198C21.1415 3.42603 21.4479 3.64846 21.6653 3.94738C21.8827 4.24631 21.9998 4.60638 22 4.97598V9.99998C22 16.19 18.23 20.705 12.599 22.83C12.2128 22.9753 11.7871 22.9753 11.401 22.83C5.77095 20.704 1.99995 16.19 1.99995 9.99998V4.97598C1.99995 4.21598 2.48995 3.54598 3.20995 3.31198L11.46 0.636978ZM12 2.35339L3.79995 5.01417V9.99998C3.79995 15.303 6.96712 19.22 11.9999 21.1317C17.0328 19.22 20.2 15.302 20.2 9.99998V5.01317L12 2.35339ZM11.93 21.426C6.77995 19.483 3.49995 15.461 3.49995 9.99998V4.97698C3.50013 4.92428 3.51695 4.87299 3.54802 4.83043C3.57909 4.78787 3.62282 4.75621 3.67295 4.73998L11.923 2.06298C11.973 2.04677 12.0269 2.04677 12.077 2.06298L20.327 4.73898C20.3771 4.75521 20.4208 4.78687 20.4519 4.82943C20.4829 4.87199 20.4998 4.92328 20.5 4.97598V9.99998C20.5 15.46 17.22 19.483 12.07 21.426C12.0248 21.4428 11.9751 21.4428 11.93 21.426Z" fill="#4438CA"/>
<path fill-rule="evenodd" clip-rule="evenodd" d="M16.4436 7.39519C16.7776 7.64014 16.8498 8.10949 16.6049 8.44351L11.1049 15.9435C10.9626 16.1375 10.7359 16.2515 10.4954 16.25C10.2548 16.2485 10.0296 16.1317 9.88976 15.9359L7.38976 12.4359C7.149 12.0989 7.22707 11.6304 7.56413 11.3897C7.90119 11.1489 8.3696 11.227 8.61036 11.5641L10.5081 14.2208L15.3953 7.55647C15.6402 7.22244 16.1096 7.15023 16.4436 7.39519Z" fill="#4438CA"/>
</svg>
